<svg xmlns="http://www.w3.org/2000/svg" width="50" height="50" viewBox="0 0 24 24" fill="none" stroke="white" stroke-width="2" stroke-linecap="round" stroke-linejoin="round">
  <!-- Background circle -->
  <!-- <circle cx="12" cy="12" r="10" fill="red"/> -->

  <!-- Phone icon -->
  <path d="M22 16.92v3a2 2 0 0 1-2.18 2 19.91 19.91 0 0 1-8.63-3.22 19.91 19.91 0 0 1-6-6A19.91 19.91 0 0 1 3 4.18 2 2 0 0 1 5 2h3a2 2 0 0 1 2 1.72 13 13 0 0 0 .74 3.24 2 2 0 0 1-.45 2.11l-1.27 1.27a16 16 0 0 0 6 6l1.27-1.27a2 2 0 0 1 2.11-.45 13 13 0 0 0 3.24.74A2 2 0 0 1 22 16.92z" fill="white"/>
</svg>
